<?xml version="1.0" encoding="UTF-8"?>
<!-- Created with Inkscape (http://www.inkscape.org/) -->
<svg width="47.172mm" height="34.561mm" version="1.1" viewBox="0 0 47.172 34.561" xmlns="http://www.w3.org/2000/svg" xmlns:cc="http://creativecommons.org/ns#" xmlns:dc="http://purl.org/dc/elements/1.1/" xmlns:rdf="http://www.w3.org/1999/02/22-rdf-syntax-ns#">
 <metadata>
  <rdf:RDF>
   <cc:Work rdf:about="">
    <dc:format>image/svg+xml</dc:format>
    <dc:type rdf:resource="http://purl.org/dc/dcmitype/StillImage"/>
    <dc:title/>
   </cc:Work>
  </rdf:RDF>
 </metadata>
 <g transform="translate(-2.5147 -1.4445)">
  <g transform="translate(-3.4166 -5.2537)">
   <path d="m42.873 40.897c-0.65484-0.20224-4.822-2.2286-9.2604-4.5031-4.4384-2.2744-11.701-5.9876-16.14-8.2516-4.4384-2.2639-8.4455-4.3939-8.9046-4.7333-1.2814-0.94709-1.9368-2.2481-2.3981-4.7605-0.51198-2.7883-0.18883-5.6256 0.84081-7.3826 0.31384-0.53553 0.91968-1.2975 1.7388-2.0065 1.0141-0.87775 2.1138-1.6909 2.8947-2.0212 1.207-0.51067 3.0017-0.32408 4.6523 0.4837 2.809 1.3747 5.8893 5.5878 6.3331 8.3627 0 0 0.16628 0.75368 0.40587 0.97748 0.39136 0.36556 1.6502 0.23905 1.6502 0.23905 2.0882 0.18935 3.4205 1.1116 4.8652 3.3679 1.5377 2.4015 2.3188 3.4449 2.6286 3.5304 0.14552 0.04016 1.0925 0.05956 1.6861-0.534 0.83442-0.83442 1.3069-1.4731 1.969-2.2393 0.59638-0.66265 1.7082-1.854 2.2-2.2095 3.284-2.5299 5.9275-2.0219 9.3127 1.5968 2.0339 2.1743 2.2898 2.6924 4.0942 8.2915 1.4215 4.4107 1.4733 4.6702 1.2323 6.1666-0.30025 1.8644-0.99467 3.0705-2.4159 4.1961-2.1479 1.7012-4.8263 2.2195-7.3852 1.4292z" fill="#f3f9fe" stroke-width=".2"/>
   <path d="m49.202 39.364c1.6181-1.5662 1.9603-4.1684 1.7715-5.793-0.25255-2.1732-1.0151-4.5009-1.7586-6.2669-2.4596-5.8423-5.928-7.8873-9.2293-7.9281 0 0-0.52115-0.05333-2.3077 0.39875-0.76394 0.21299 0.96768-1.0824 1.6889-1.5193 2.8514-1.727 6.3291-0.55712 9.3979 3.1484 1.3504 1.9818 1.5912 2.1463 3.1317 6.9364 1.2799 4.5456 1.2071 5.2537 1.2057 5.8331-0.0056 2.2079-1.0046 4.6048-3.4687 5.8687-0.84883 0.43539-2.2255 0.96195-2.1256 0.86207 0.11109-0.11109 1.0972-0.96208 1.6943-1.54zm-19.998-14.149c-0.536-0.56618-1.0497-1.6005-1.7539-2.7476s-1.8001-2.061-2.2514-2.4392c-0.97945-0.82082-2.7761-1.3518-3.8501-1.1378-0.86449 0.1722-0.90002 0.11756-1.6886-2.5965-0.57989-1.9959-2.0019-4.2705-2.7982-5.1541-1.4697-1.6309-2.8493-2.7895-5.1199-2.7715-0.81311 0.0064307-2.0886 0.2664-2.1224 0.21741-0.07612-0.11058 1.0408-0.80693 1.7187-1.2186 1.2991-0.7889 3.0698-0.96641 4.8909-0.062594 2.9065 1.4425 5.7603 5.2627 6.4476 8.4544 0 0 0.06386 1.0228 0.43451 1.3221 0.36032 0.29099 1.3644 0.07517 1.3644 0.07517 2.6259 0 4.1276 1.183 6.298 4.9613 0.41048 0.7146 0.59324 1.2561 1.0558 1.7807 0 0 0.55804 0.26198 1.0541 0.29741 0.38979-0.07087 0.94438-0.41834 0.94438-0.41834l-1.3745 1.4441c-0.99082 1.041-2.0728 1.2364-3.2495-0.0064z" fill="#cbeaff" stroke-width=".20546"/>
  </g>
 </g>
</svg>
