<?xml version="1.0" encoding="UTF-8"?>
<!-- Created with Inkscape (http://www.inkscape.org/) -->
<svg width="39.427mm" height="16.127mm" version="1.1" viewBox="0 0 39.427 16.127" xmlns="http://www.w3.org/2000/svg" xmlns:cc="http://creativecommons.org/ns#" xmlns:dc="http://purl.org/dc/elements/1.1/" xmlns:rdf="http://www.w3.org/1999/02/22-rdf-syntax-ns#" xmlns:xlink="http://www.w3.org/1999/xlink">
 <defs>
  <style type="text/css"><![CDATA[                @font-face {                    font-family: "Fira Sans";                    font-style: normal;                    font-weight: 400;                    src: local("Fira Sans Regular"), local("FiraSans-Regular"), url(http://fonts.gstatic.com/l/font?kit=qsuTv4AFRkRE5Jm8WL3_pRQerSK3VDNDEWvAVahavW-u7RP096c_0cFQ7arjjB7yI5cKExkXUAa9DQdY-YnA4g&skey=6bde03e5f15b0572&v=v7) format("woff2");                }            ]]></style>
  <path id="path-1" d="m3.113 36.788c0.631 0 0.995 0.397 0.995 1.047v2.457h-0.598v-2.373c0-0.514-0.208-0.663-0.539-0.663-0.384 0-0.643 0.24-0.871 0.604v2.431h-0.598v-3.425h0.513l0.052 0.507c0.234-0.351 0.598-0.585 1.046-0.585zm4.505 2.704c0 0.299 0.111 0.397 0.286 0.462l-0.136 0.416c-0.345-0.039-0.566-0.175-0.67-0.514-0.24 0.358-0.604 0.514-1.02 0.514-0.683 0-1.092-0.422-1.092-1.033 0-0.735 0.553-1.131 1.508-1.131h0.527v-0.254c0-0.494-0.24-0.676-0.715-0.676-0.254 0-0.572 0.065-0.923 0.182l-0.15-0.435c0.423-0.156 0.8-0.234 1.183-0.234 0.826 0 1.203 0.422 1.203 1.138v1.566zm-1.404 0.429c0.351 0 0.611-0.175 0.806-0.533v-0.787h-0.449c-0.631 0-0.949 0.234-0.949 0.702 0 0.403 0.201 0.617 0.591 0.617zm4.134-0.195 0.228 0.41c-0.228 0.156-0.475 0.234-0.767 0.234-0.579 0-0.923-0.338-0.923-0.975v-2.067h-0.598v-0.462h0.598v-0.773l0.598-0.072v0.845h0.813l-0.065 0.462h-0.748v2.041c0 0.345 0.111 0.507 0.409 0.507 0.149 0 0.286-0.045 0.455-0.149zm3.393-2.86v3.425h-0.514l-0.046-0.533c-0.26 0.416-0.579 0.611-1.066 0.611-0.598 0-0.956-0.377-0.956-1.046v-2.457h0.598v2.392c0 0.468 0.156 0.644 0.527 0.644 0.37 0 0.65-0.247 0.858-0.592v-2.444h0.598zm2.724-0.078c0.11 0 0.234 0.013 0.338 0.039l-0.11 0.585c-0.104-0.026-0.175-0.039-0.299-0.039-0.429 0-0.676 0.306-0.819 0.962v1.956h-0.598v-3.425h0.514l0.059 0.695c0.182-0.514 0.501-0.773 0.917-0.773zm3.542 1.69-0.013 0.306h-2.184c0.059 0.793 0.429 1.099 0.923 1.099 0.338 0 0.591-0.091 0.89-0.299l0.26 0.358c-0.338 0.267-0.721 0.429-1.196 0.429-0.956 0-1.515-0.669-1.515-1.755 0-1.066 0.54-1.827 1.424-1.827 0.923 0 1.41 0.644 1.41 1.69zm-0.591-0.136v-0.039c0-0.669-0.266-1.04-0.806-1.04-0.455 0-0.754 0.319-0.8 1.079h1.605zm3.211-2.606c1.124 0 1.892 0.813 1.892 2.32 0 1.482-0.767 2.314-1.892 2.314-1.118 0-1.892-0.806-1.892-2.307 0-1.475 0.773-2.327 1.892-2.327zm0 0.507c-0.748 0-1.235 0.526-1.235 1.82s0.507 1.8 1.235 1.8c0.754 0 1.235-0.507 1.235-1.807 0-1.287-0.468-1.813-1.235-1.813zm4.03-0.344c-0.377 0-0.507 0.162-0.507 0.494v0.474h0.832l-0.065 0.462h-0.767v2.964h-0.598v-2.964h-0.611v-0.462h0.611v-0.468c0-0.572 0.377-0.981 1.072-0.981 0.325 0 0.546 0.058 0.819 0.175l-0.188 0.435c-0.221-0.097-0.422-0.13-0.598-0.13zm2.178 0c-0.377 0-0.507 0.162-0.507 0.494v0.474h0.832l-0.065 0.462h-0.767v2.964h-0.598v-2.964h-0.611v-0.462h0.611v-0.468c0-0.572 0.377-0.981 1.073-0.981 0.325 0 0.546 0.058 0.819 0.175l-0.189 0.435c-0.221-0.097-0.422-0.13-0.598-0.13zm1.372-0.676c0.253 0 0.422 0.175 0.422 0.41 0 0.227-0.169 0.403-0.422 0.403-0.247 0-0.416-0.175-0.416-0.403 0-0.234 0.169-0.41 0.416-0.41zm0.305 1.645v3.425h-0.598v-3.425zm2.483-0.078c0.403 0 0.728 0.104 1.047 0.37l-0.286 0.377c-0.234-0.169-0.448-0.254-0.734-0.254-0.539 0-0.877 0.422-0.877 1.313 0 0.897 0.338 1.267 0.877 1.267 0.286 0 0.487-0.091 0.748-0.26l0.273 0.39c-0.306 0.247-0.65 0.377-1.047 0.377-0.923 0-1.495-0.656-1.495-1.761 0-1.092 0.566-1.82 1.495-1.82zm4.381 1.69-0.013 0.306h-2.184c0.058 0.793 0.429 1.099 0.923 1.099 0.338 0 0.591-0.091 0.89-0.299l0.26 0.358c-0.338 0.267-0.721 0.429-1.196 0.429-0.956 0-1.514-0.669-1.514-1.755 0-1.066 0.539-1.827 1.423-1.827 0.923 0 1.41 0.644 1.41 1.69zm-0.591-0.136v-0.039c0-0.669-0.267-1.04-0.806-1.04-0.455 0-0.754 0.319-0.8 1.079h1.605zm1.736 1.125c0.26 0 0.455 0.201 0.455 0.448 0 0.254-0.195 0.455-0.455 0.455-0.254 0-0.449-0.201-0.449-0.455 0-0.247 0.195-0.448 0.449-0.448zm2.587-2.678c0.403 0 0.728 0.104 1.047 0.37l-0.286 0.377c-0.234-0.169-0.448-0.254-0.734-0.254-0.54 0-0.878 0.422-0.878 1.313 0 0.897 0.338 1.267 0.878 1.267 0.286 0 0.487-0.091 0.747-0.26l0.273 0.39c-0.306 0.247-0.65 0.377-1.047 0.377-0.923 0-1.495-0.656-1.495-1.761 0-1.092 0.566-1.82 1.495-1.82zm3.081 0c0.975 0 1.521 0.702 1.521 1.788 0 1.059-0.559 1.794-1.528 1.794-0.975 0-1.527-0.702-1.527-1.787 0-1.059 0.559-1.794 1.534-1.794zm0 0.481c-0.572 0-0.891 0.416-0.891 1.313 0 0.89 0.312 1.306 0.884 1.306s0.884-0.416 0.884-1.313c0-0.891-0.312-1.306-0.877-1.306zm5.947-0.481c0.559 0 0.929 0.403 0.929 1.047v2.457h-0.598v-2.373c0-0.514-0.221-0.663-0.481-0.663-0.37 0-0.572 0.24-0.806 0.604v2.431h-0.598v-2.373c0-0.514-0.221-0.663-0.481-0.663-0.37 0-0.578 0.24-0.806 0.604v2.431h-0.598v-3.425h0.514l0.052 0.5c0.227-0.344 0.539-0.578 0.988-0.578 0.422 0 0.734 0.227 0.864 0.617 0.247-0.37 0.559-0.617 1.02-0.617z"/>
 </defs>
 <metadata>
  <rdf:RDF>
   <cc:Work rdf:about="">
    <dc:format>image/svg+xml</dc:format>
    <dc:type rdf:resource="http://purl.org/dc/dcmitype/StillImage"/>
    <dc:title/>
   </cc:Work>
  </rdf:RDF>
 </metadata>
 <g transform="translate(-.017547 -.010686)">
  <g id="Label_klimaneutrale_Webseite_DE" transform="matrix(.26458 0 0 .26458 12.701 7.9661)">
   <path id="Shape" d="m-42.27 27.735c-2.85 0-5.169-2.319-5.169-5.169v-45.354c0-2.85 2.319-5.169 5.169-5.169h12.696l0.337-0.5h-13.033c-3.131 0-5.669 2.538-5.669 5.669v45.354c0 3.131 2.538 5.669 5.669 5.669h23.456l-0.805-0.5zm137.68-56.193h-116.5l0.304 0.5h116.19c2.85 0 5.169 2.319 5.169 5.169v45.354c0 2.85-2.319 5.169-5.169 5.169h-80.417l-0.832 0.5h81.249c3.131 0 5.669-2.538 5.669-5.669v-45.354c0-3.131-2.538-5.669-5.669-5.669z" fill="#e6e6e6"/>
   <path id="Path" d="m-7.4917 9.6264h99.213m-47.322 9.922v-9.921" fill="#e6e6e6" opacity=".159" stroke="#423a35" stroke-width=".25"/>
   <path d="m-24.879-30.068c-8.67 11.901-8.733 18.471-5.299 26.704 1.874 0.853 3.324 1.782 4.834 3.789-1.114-5.229-1.445-9.995-0.415-13.557-0.112 4.859 0.371 10.168 1.805 15.423 1.183 1.959 1.784 3.822 2.265 5.933 4.294-5.638 9.89-11.284 9.53-18.311-0.428-8.346-9.416-10.874-12.719-19.98zm3.742 40.119-0.123-0.205c0.408 1.798 0.626 3.644 0.763 5.523 2.836 3.46 6.584 6.243 11.056 7.931 2.849 1.075 5.77 1.612 8.657 1.68-9.234-0.763-18.413-7.302-20.353-14.93z" fill="#f9f9f9"/>
   <g fill="#e6e6e6">
    <path d="m12.665 26.117c-4.615 2.977-13.254 4.836-19.805 3.171-6.341-1.611-11.337-5.416-13.96-10.007-0.235-0.586-0.365-1.201-0.351-1.865l-0.021-0.021c-0.294-5.35-0.938-11.115-3.9-15.364-4.736-6.795-11.759-4.63-18.717-10.693 1.326 14.166 4.924 23.571 16.942 28.751 1.474 0.636 2.274 0.57 3.574 1.764-4.838-4.47-8.966-7.426-12.008-15.895 3.364 5.488 8.92 12.23 14.614 17.13l0.043 1e-3c3.599 4.108 9.491 7.069 16.354 7.681 7.155 0.639 13.711-1.431 17.977-5.116l-0.741 0.461z"/>
    <text transform="scale(.91269 1.0957)" x="-35.862659" y="-28.307756" font-family="'Fira Sans'" font-size="5.9325px" stroke-width=".91269"><tspan x="51.650043" y="17.593418" fill="#e6e6e6" stroke-width=".91269">2019-707-645228</tspan></text>
    <g id="Group" transform="translate(-48.829 -30.016)">
     <path d="m41.365 22.19v-9.383c0-1.156-0.034-2.057-0.17-2.601l2.94-0.51c0.119 0.697 0.187 1.411 0.187 3.094v9.4zm5.235 0-2.261-4.963 1.547-3.808h3.468l-2.397 3.569 2.958 5.202z"/>
     <path d="m53.145 22.411c-2.499 0-2.55-1.292-2.55-3.043v-5.983c0-1.156 0-2.601-0.102-3.196l2.924-0.493c0.085 0.527 0.136 1.292 0.136 2.193v6.51c0 1.547 0.051 1.955 0.714 1.955 0.102 0 0.204-0.017 0.306-0.051l0.476 1.836c-0.391 0.153-1.088 0.272-1.904 0.272z"/>
     <path d="m57.14 12.773c-0.918 0-1.683-0.748-1.683-1.666s0.782-1.665 1.734-1.665c0.935 0 1.666 0.748 1.666 1.665 0 0.918-0.765 1.666-1.717 1.666zm-1.462 9.417v-8.635l2.957-0.272v8.907z"/>
     <path d="m69.192 22.19v-5.422c0-1.173-0.119-1.241-0.629-1.241-0.187 0-0.646 0.153-0.952 0.34v6.323h-2.77v-5.439c0-1.156-0.034-1.275-0.595-1.275-0.272 0-0.714 0.153-0.952 0.34v6.374h-2.873v-5.576c0-1.054-0.051-2.005-0.272-2.94l2.72-0.459c0.085 0.306 0.153 0.544 0.17 0.85 0.612-0.544 1.377-0.867 2.125-0.867 0.935 0 1.513 0.391 1.972 0.952 0.697-0.629 1.496-0.952 2.516-0.952 1.224 0 2.38 0.408 2.38 2.601v6.391h-2.839z"/>
     <path d="m79.597 22.546c-0.425-0.136-0.952-0.595-1.088-0.867-0.425 0.357-1.156 0.731-2.193 0.731-2.176 0-3.009-1.292-3.009-2.856 0-1.666 1.445-2.856 3.893-2.856 0.119 0 0.408 0 0.493 0.017v-0.544c0-0.51-0.068-0.816-0.714-0.816-0.986 0-1.751 0.357-2.499 0.918l-1.071-1.836c1.088-0.663 2.499-1.241 3.944-1.241 1.666 0 2.838 0.561 3.162 1.598 0.119 0.391 0.136 0.714 0.136 1.36l-0.034 3.025c0 0.731 0.068 1.326 0.68 1.717l-1.7 1.649zm-1.904-3.995h-0.119c-1.139 0-1.394 0.476-1.394 0.969 0 0.51 0.306 0.85 0.816 0.85 0.255 0 0.595-0.153 0.697-0.289z"/>
     <path d="m87.161 22.19v-5.609c0-0.952-0.306-0.952-0.73-0.952-0.221 0-0.561 0.153-0.969 0.51v6.051h-2.957v-5.576c0-1.054-0.051-2.005-0.272-2.94l2.72-0.459c0.068 0.204 0.153 0.544 0.17 0.816 0.578-0.425 1.377-0.833 2.533-0.833 2.057 0 2.465 1.207 2.465 2.414v6.578h-2.958z"/>
     <path d="m94.54 18.739c0 0.544 0.187 1.598 1.411 1.598 0.765 0 1.547-0.289 2.312-0.884l1.139 1.7c-1.173 0.901-2.261 1.258-3.57 1.258-2.805 0-4.352-1.717-4.352-4.556 0-2.89 1.513-4.658 3.995-4.658 2.805 0 3.961 1.768 3.961 4.743v0.799h-4.895zm1.972-2.091c0-0.867-0.255-1.394-0.935-1.394-0.629 0-1.037 0.391-1.037 1.564h1.972z"/>
     <path d="m106.12 22.411c-0.204-0.238-0.306-0.612-0.374-0.799-0.51 0.459-1.258 0.799-2.192 0.799-1.615 0-2.448-0.527-2.754-1.53-0.136-0.442-0.17-0.969-0.17-2.124v-5.1l2.958-0.476v6.357c0 0.544 0.272 0.663 0.782 0.663 0.289 0 0.663-0.17 0.918-0.442v-6.102l2.958-0.476v6.324c0 0.901 0.187 1.53 0.442 1.989l-2.567 0.918zm6.919 0.016c-1.649 0-2.754-0.425-2.754-2.124v-4.947h-0.714v-1.938h0.714c0-0.867 0.017-1.598 0.102-2.176l2.94-0.442c-0.085 0.782-0.085 1.802-0.085 2.618h1.615l-0.391 1.938h-1.224v3.536c0 1.224 0.17 1.496 0.918 1.496 0.272 0 0.561-0.068 0.748-0.17l0.357 1.7c-0.748 0.357-1.496 0.51-2.227 0.51zm8.024-6.629c-0.306-0.17-0.527-0.238-0.867-0.238-0.51 0-0.833 0.272-1.037 0.629v6h-2.957v-5.337c0-1.122-0.034-2.227-0.272-3.179l2.72-0.459c0.085 0.306 0.187 0.68 0.187 1.037 0.357-0.476 0.867-1.088 1.802-1.088 0.425 0 0.697 0.085 1.105 0.255l-0.68 2.38z"/>
     <path d="m128.08 22.546c-0.425-0.136-0.952-0.595-1.088-0.867-0.425 0.357-1.156 0.731-2.193 0.731-2.176 0-3.009-1.292-3.009-2.856 0-1.666 1.445-2.856 3.893-2.856 0.119 0 0.408 0 0.493 0.017v-0.544c0-0.51-0.068-0.816-0.714-0.816-0.986 0-1.751 0.357-2.499 0.918l-1.071-1.836c1.088-0.663 2.499-1.241 3.944-1.241 1.665 0 2.838 0.561 3.162 1.598 0.119 0.391 0.136 0.714 0.136 1.36l-0.034 3.025c0 0.731 0.068 1.326 0.68 1.717l-1.7 1.649zm-1.904-3.995h-0.119c-1.139 0-1.394 0.476-1.394 0.969 0 0.51 0.306 0.85 0.816 0.85 0.255 0 0.595-0.153 0.697-0.289z"/>
     <path d="m133.54 22.411c-2.499 0-2.55-1.292-2.55-3.043v-5.983c0-1.156 0-2.601-0.102-3.196l2.924-0.493c0.085 0.527 0.136 1.292 0.136 2.193v6.51c0 1.547 0.051 1.955 0.714 1.955 0.102 0 0.204-0.017 0.306-0.051l0.476 1.836c-0.391 0.153-1.088 0.272-1.904 0.272z"/>
     <path d="m138.53 18.739c0 0.544 0.187 1.598 1.411 1.598 0.765 0 1.547-0.289 2.312-0.884l1.139 1.7c-1.173 0.901-2.261 1.258-3.57 1.258-2.805 0-4.352-1.717-4.352-4.556 0-2.89 1.513-4.658 3.995-4.658 2.805 0 3.961 1.768 3.961 4.743v0.799h-4.895zm1.972-2.091c0-0.867-0.255-1.394-0.935-1.394-0.629 0-1.037 0.391-1.037 1.564h1.972z"/>
     <path d="m40.83 25.627h0.793l1.391 6.058c0.195 0.871 0.39 2.002 0.416 2.146 0.013-0.104 0.234-1.261 0.429-2.067l1.417-6.136h0.832l1.404 6.228c0.221 1.014 0.377 1.924 0.39 1.976 0.013-0.039 0.273-1.456 0.442-2.223l1.326-5.981h0.741l-2.054 8.918h-0.962l-1.339-5.889c-0.13-0.598-0.377-1.898-0.377-2.002-0.026 0.078-0.182 1.027-0.39 1.937l-1.365 5.954h-0.949l-2.145-8.918z"/>
     <path d="m51.581 31.256c0-1.105 0.247-1.846 0.767-2.457 0.442-0.52 1.04-0.871 1.833-0.871 0.689 0 1.235 0.273 1.625 0.663 0.494 0.52 0.741 1.131 0.741 2.587v0.143h-4.16v0.338c0.013 0.689 0.182 1.248 0.429 1.612 0.351 0.52 0.936 0.806 1.664 0.806 0.65 0 1.196-0.182 1.638-0.585l0.286 0.455c-0.546 0.468-1.235 0.728-2.067 0.728-1.781 0-2.756-1.378-2.756-3.419zm4.212-0.468c0-0.78-0.13-1.274-0.338-1.612-0.247-0.403-0.715-0.689-1.313-0.689-0.975 0-1.69 0.767-1.755 2.301zm3.327 3.003c-0.026 0.299-0.065 0.507-0.182 0.754h-0.702c0.143-0.312 0.195-0.741 0.195-1.612v-6.422c0-0.819-0.143-1.261-0.169-1.326l0.702-0.143c0.026 0.065 0.169 0.533 0.169 1.495v1.677l-0.013 0.65c0.572-0.624 1.157-0.91 1.885-0.91 0.741 0 1.365 0.299 1.794 0.858 0.442 0.585 0.65 1.378 0.65 2.418 0 0.949-0.208 1.716-0.52 2.262-0.455 0.754-1.131 1.183-2.002 1.183-0.676 0-1.417-0.351-1.807-0.884zm3.081-0.481c0.247-0.364 0.468-1.066 0.468-2.132 0-0.923-0.13-1.521-0.468-1.963-0.312-0.416-0.806-0.624-1.339-0.624-0.663 0-1.339 0.351-1.742 0.923v3.692c0.377 0.52 1.066 0.845 1.69 0.845 0.559 0 1.092-0.286 1.391-0.741z"/>
     <path d="m64.866 34.077 0.273-0.521c0.585 0.377 1.274 0.585 2.015 0.585 0.936 0 1.508-0.533 1.508-1.313 0-0.611-0.311-1.04-1.183-1.222l-0.806-0.156c-1.001-0.208-1.573-0.793-1.573-1.703 0-1.079 0.832-1.859 2.158-1.859 0.689 0 1.352 0.195 1.846 0.507l-0.286 0.52c-0.481-0.273-1.001-0.468-1.586-0.468-0.897 0-1.404 0.52-1.404 1.222 0 0.624 0.351 0.962 1.079 1.118l0.832 0.169c1.183 0.247 1.664 0.858 1.664 1.742 0 1.183-0.897 2.002-2.288 2.002-0.819 0-1.651-0.234-2.249-0.624z"/>
     <path d="m70.833 31.256c0-1.105 0.247-1.846 0.767-2.457 0.442-0.52 1.04-0.871 1.834-0.871 0.689 0 1.235 0.273 1.625 0.663 0.494 0.52 0.741 1.131 0.741 2.587v0.143h-4.16v0.338c0.013 0.689 0.182 1.248 0.429 1.612 0.351 0.52 0.936 0.806 1.664 0.806 0.65 0 1.196-0.182 1.638-0.585l0.286 0.455c-0.546 0.468-1.235 0.728-2.067 0.728-1.781 0-2.756-1.378-2.756-3.419zm4.212-0.468c0-0.78-0.13-1.274-0.338-1.612-0.247-0.403-0.715-0.689-1.313-0.689-0.975 0-1.69 0.767-1.755 2.301zm2.444-4.758c0-0.312 0.26-0.572 0.572-0.572s0.572 0.247 0.572 0.572c0 0.312-0.26 0.572-0.572 0.572s-0.572-0.26-0.572-0.572zm0.195 2.041 0.728-0.117v6.591h-0.728z"/>
     <path d="m81.376 34.48c-0.351-0.208-0.507-0.598-0.507-1.196v-4.68h-0.845v-0.533h0.845c0-0.663 0.078-1.521 0.104-1.664l0.754-0.156c-0.039 0.13-0.143 0.962-0.143 1.82h1.599l-0.221 0.533h-1.404v4.498c0 0.715 0.221 1.066 0.871 1.066 0.299 0 0.494-0.052 0.676-0.143l0.104 0.468c-0.286 0.143-0.598 0.221-1.014 0.221-0.364 0-0.611-0.104-0.819-0.234z"/>
     <path d="m84.34 31.256c0-1.105 0.247-1.846 0.767-2.457 0.442-0.52 1.04-0.871 1.834-0.871 0.689 0 1.235 0.273 1.625 0.663 0.494 0.52 0.741 1.131 0.741 2.587v0.143h-4.16v0.338c0.013 0.689 0.182 1.248 0.429 1.612 0.351 0.52 0.936 0.806 1.664 0.806 0.65 0 1.196-0.182 1.638-0.585l0.286 0.455c-0.546 0.468-1.235 0.728-2.067 0.728-1.781 0-2.756-1.378-2.756-3.419zm4.212-0.468c0-0.78-0.13-1.274-0.338-1.612-0.247-0.403-0.715-0.689-1.313-0.689-0.975 0-1.69 0.767-1.755 2.301z"/>
     <g id="natureOffice.com" transform="translate(40,9)">
      <use width="100%" height="100%" xlink:href="#path-1"/>
      <use width="100%" height="100%" xlink:href="#path-1"/>
     </g>
    </g>
   </g>
  </g>
 </g>
</svg>
