<?xml version="1.0" encoding="UTF-8"?><svg width="180px" height="200px" viewBox="0 0 180 200" version="1.1" xmlns="http://www.w3.org/2000/svg" xmlns:xlink="http://www.w3.org/1999/xlink">    <title>Klimaneutrale Website – Logo</title>    <defs>        <style type="text/css">        <![CDATA[            @font-face {                font-family: "Fira Sans";                font-style: normal;                font-weight: 400;                src: local("Fira Sans Regular"), local("FiraSans-Regular"), url(http://fonts.gstatic.com/l/font?kit=qsuTv4AFRkRE5Jm8WL3_pRQerSK3VDNDEWvAVahavW-u7RP096c_0cFQ7arjjB7yI5cKExkXUAa9DQdY-YnA4g&skey=6bde03e5f15b0572&v=v7) format("woff2");            }        ]]>        </style>    </defs>    <g stroke="none" stroke-width="1" fill="none" fill-rule="evenodd">        <g id="Logo">            <g transform="translate(49.000000, 0.000000)">                <g fill-rule="nonzero">                    <polygon fill="#005F3C" points="82 139 41 160 0 139 0 0 82 0"></polygon>                    <polygon fill="#149B5A" points="80 138 41 158 2 138 2 0 80 0"></polygon>                </g>                <g transform="translate(12.000000, 3.000000)">                    <rect fill="#FFFFFF" x="0" y="97" width="58" height="1"></rect>                    <path d="M34.1676,11.9194 C33.4508,6.8403 27.8179,5.7849 25.3018,0.3979 C20.6507,8.1464 20.9706,12.1669 23.5188,17.0129 C24.7112,17.4322 25.6482,17.9214 26.6808,19.0656 C25.7147,15.9296 25.2519,13.0336 25.6873,10.7997 C25.884,13.7767 26.4686,16.996 27.6321,20.1305 C28.4622,21.2634 28.9311,22.3696 29.3403,23.634 C31.6581,19.9527 34.7712,16.196 34.1676,11.9194 Z M29.7338,24.6632 C29.7201,24.6428 29.7053,24.6232 29.6917,24.6028 C30.0389,25.6797 30.273,26.7966 30.4593,27.938 C32.0039,29.5129 33.8889,30.7811 36.0339,31.6305 C32.9923,30.289 30.666,27.754 29.7338,24.6632 Z" fill="#FFFFFF"></path>                    <path d="M30.538,32.6551 C32.5944,34.2843 35.503,35.3023 38.7303,35.3023 C40.7256,35.3023 42.5986,34.9123 44.2249,34.2307 C42.3374,34.9532 40.1182,35.2047 37.8246,34.8349 C35.0373,34.3855 32.6603,33.1044 31.0461,31.3869 C31.022,31.361 30.9969,31.3353 30.9734,31.3093 C30.9207,31.2519 30.8739,31.1915 30.8228,31.1331 C30.3537,30.5698 30.0361,29.9656 29.9877,29.242 C29.9833,29.2381 29.9783,29.2343 29.9739,29.2304 C29.5024,25.9758 28.7941,22.4861 26.7516,20.0501 C23.4852,16.1542 19.3098,17.8607 14.7255,14.5339 C16.3092,23.1219 19.0218,28.676 26.6514,31.1873 C27.5874,31.4956 28.0729,31.4118 28.9325,32.0711 C25.7306,29.6021 23.046,28.0201 20.7243,23.0087 C23.0688,26.1646 26.8079,29.9723 30.538,32.6551 Z" fill="#9FDC46"></path>                    <path d="M3.29231345,41.1097 L0.0123134534,41.1097 L0.0123134534,54.9697 L3.29231345,54.9697 L3.29231345,41.1097 Z M11.2523135,41.1097 L7.79231345,41.1097 L3.39231345,47.5697 L7.81231345,54.9697 L11.6123135,54.9697 L6.83231345,47.3297 L11.2523135,41.1097 Z M16.5523135,41.1097 L13.2723135,41.1097 L13.2723135,54.9697 L21.6123135,54.9697 L21.9523135,52.3697 L16.5523135,52.3697 L16.5523135,41.1097 Z M27.4123135,41.1097 L24.1323135,41.1097 L24.1323135,54.9697 L27.4123135,54.9697 L27.4123135,41.1097 Z M43.3123135,41.1097 L39.1523135,41.1097 L37.2123135,50.5097 L35.1323135,41.1097 L30.9923135,41.1097 L29.9523135,54.9697 L33.1523135,54.9697 L33.3923135,49.5897 C33.4723135,47.6497 33.4723135,45.9297 33.3323135,43.8897 L35.6123135,53.5097 L38.7123135,53.5097 L40.8523135,43.8897 C40.7523135,45.6097 40.7923135,47.6097 40.8923135,49.5497 L41.1323135,54.9697 L44.3523135,54.9697 L43.3123135,41.1097 Z M54.3523135,54.9697 L53.6523135,51.9897 L49.5923135,51.9897 L48.8923135,54.9697 L45.4923135,54.9697 L49.6723135,41.1097 L53.6523135,41.1097 L57.8323135,54.9697 L54.3523135,54.9697 Z M50.1523135,49.6097 L53.0723135,49.6097 L51.6123135,43.4897 L50.1523135,49.6097 Z" fill="#FFFFFF"></path>                    <path d="M6.53920029,61.5454001 L4.74580031,61.5454001 L4.74580031,64.9614001 C4.74580031,66.3156001 4.90440031,67.4258 5.01420031,68.109 L2.51320035,61.5454001 L0.024400387,61.5454001 L0.024400387,70 L1.80560036,70 L1.80560036,66.9012 C1.80560036,65.3396001 1.64700036,64.2172001 1.54940036,63.4486001 L3.98940033,70 L6.53920029,70 L6.53920029,61.5454001 Z M13.5980002,61.5454001 L8.41300027,61.5454001 L8.41300027,70 L13.5980002,70 L13.5980002,68.5604 L10.4138002,68.5604 L10.4138002,66.4010001 L13.0124002,66.4010001 L13.0124002,64.9980001 L10.4138002,64.9980001 L10.4138002,62.9728001 L13.3906002,62.9728001 L13.5980002,61.5454001 Z M21.6084001,61.5454001 L19.6076001,61.5454001 L19.6076001,67.1086 C19.6076001,68.1944 19.2172001,68.719 18.3022001,68.719 C17.3994001,68.719 17.0090002,68.1944 17.0090002,67.1086 L17.0090002,61.5454001 L15.0082002,61.5454001 L15.0082002,67.194 C15.0082002,68.9752 16.0940002,70.2074 18.3022001,70.2074 C20.5104001,70.2074 21.6084001,68.902 21.6084001,67.194 L21.6084001,61.5454001 Z M29.1552,61.5454001 L22.6892001,61.5454001 L22.6892001,63.0826001 L24.873,63.0826001 L24.873,70 L26.8738,70 L26.8738,63.0826001 L28.96,63.0826001 L29.1552,61.5454001 Z M34.7743999,70 L33.0419999,66.7670001 L32.2611999,66.7670001 L32.2611999,70 L30.2604,70 L30.2604,61.5454001 L33.0297999,61.5454001 C35.3233999,61.5454001 36.5067999,62.3628001 36.5067999,64.1196001 C36.5067999,65.2298001 35.9821999,65.8886001 34.8841999,66.4010001 L37.0313999,70 L34.7743999,70 Z M32.2611999,62.9484001 L32.2611999,65.3884001 L33.1029999,65.3884001 C33.9813999,65.3884001 34.4449999,65.0102001 34.4449999,64.1196001 C34.4449999,63.3022001 33.9691999,62.9484001 32.9809999,62.9484001 L32.2611999,62.9484001 Z M42.5407998,70 L42.1137998,68.1822 L39.6371999,68.1822 L39.2101999,70 L37.1361999,70 L39.6859999,61.5454001 L42.1137998,61.5454001 L44.6635998,70 L42.5407998,70 Z M39.9787998,66.7304001 L41.7599998,66.7304001 L40.8693998,62.9972001 L39.9787998,66.7304001 Z M47.5865997,61.5454001 L45.5857998,61.5454001 L45.5857998,70 L50.6731997,70 L50.8805997,68.414 L47.5865997,68.414 L47.5865997,61.5454001 Z M57.3293996,61.5454001 L52.1443997,61.5454001 L52.1443997,70 L57.3293996,70 L57.3293996,68.5604 L54.1451997,68.5604 L54.1451997,66.4010001 L56.7437996,66.4010001 L56.7437996,64.9980001 L54.1451997,64.9980001 L54.1451997,62.9728001 L57.1219996,62.9728001 L57.3293996,61.5454001 Z" fill="#FFFFFF"></path>                    <path d="M11.6733134,77.131705 L9.48931343,77.131705 L8.35531343,85.097705 L7.09531343,77.131705 L4.68731343,77.131705 L3.34331343,85.097705 L2.37731343,77.131705 L0.0813134295,77.131705 L1.67731343,86.833705 L4.58931343,86.833705 L5.86331343,79.427705 L7.06731343,86.833705 L10.0493134,86.833705 L11.6733134,77.131705 Z M19.2733135,77.131705 L13.3233135,77.131705 L13.3233135,86.833705 L19.2733135,86.833705 L19.2733135,85.181705 L15.6193135,85.181705 L15.6193135,82.703705 L18.6013135,82.703705 L18.6013135,81.093705 L15.6193135,81.093705 L15.6193135,78.769705 L19.0353135,78.769705 L19.2733135,77.131705 Z M26.4533135,81.695705 C27.5313135,81.905705 28.6373135,82.437705 28.6373135,84.005705 C28.6373135,86.217705 26.8453135,86.833705 24.4093135,86.833705 L21.2873135,86.833705 L21.2873135,77.131705 L24.0313135,77.131705 C26.6353135,77.131705 28.2313135,77.789705 28.2313135,79.609705 C28.2313135,80.841705 27.3493135,81.485705 26.4533135,81.695705 Z M24.2553135,78.755705 L23.5833135,78.755705 L23.5833135,81.009705 L24.4373135,81.009705 C25.3893135,81.009705 25.8933135,80.645705 25.8933135,79.833705 C25.8933135,79.021705 25.3613135,78.755705 24.2553135,78.755705 Z M24.4233135,85.167705 C25.5013135,85.167705 26.2713135,84.943705 26.2713135,83.879705 C26.2713135,82.899705 25.5853135,82.535705 24.5913135,82.535705 L23.5833135,82.535705 L23.5833135,85.167705 L24.4233135,85.167705 Z M33.5073135,76.893705 C31.4913135,76.893705 30.0073135,77.985705 30.0073135,79.693705 C30.0073135,81.135705 30.8053135,82.031705 32.9753135,82.703705 C34.3893135,83.137705 34.7533135,83.459705 34.7533135,84.173705 C34.7533135,84.915705 34.1653135,85.363705 33.2133135,85.363705 C32.2473135,85.363705 31.4773135,85.013705 30.7633135,84.411705 L29.6013135,85.685705 C30.3993135,86.455705 31.6033135,87.071705 33.2833135,87.071705 C35.7053135,87.071705 37.1333135,85.811705 37.1333135,84.005705 C37.1333135,82.213705 36.0833135,81.457705 34.2493135,80.869705 C32.7373135,80.393705 32.3733135,80.141705 32.3733135,79.525705 C32.3733135,78.909705 32.8773135,78.573705 33.6753135,78.573705 C34.4593135,78.573705 35.1313135,78.839705 35.8033135,79.385705 L36.8673135,78.139705 C36.0133135,77.327705 34.9913135,76.893705 33.5073135,76.893705 Z M41.2893135,77.131705 L38.9933135,77.131705 L38.9933135,86.833705 L41.2893135,86.833705 L41.2893135,77.131705 Z M50.3313135,77.131705 L42.9113135,77.131705 L42.9113135,78.895705 L45.4173135,78.895705 L45.4173135,86.833705 L47.7133135,86.833705 L47.7133135,78.895705 L50.1073135,78.895705 L50.3313135,77.131705 Z M57.8053136,77.131705 L51.8553136,77.131705 L51.8553136,86.833705 L57.8053136,86.833705 L57.8053136,85.181705 L54.1513136,85.181705 L54.1513136,82.703705 L57.1333136,82.703705 L57.1333136,81.093705 L54.1513136,81.093705 L54.1513136,78.769705 L57.5673136,78.769705 L57.8053136,77.131705 Z" fill="#FFFFFF"></path>                    <path d="M2.92499998,123.61 C2.23499998,123.61 1.67499998,123.97 1.31499998,124.51 L1.23499998,123.73 L0.444999984,123.73 L0.444999984,129 L1.36499998,129 L1.36499998,125.26 C1.71499998,124.7 2.11499998,124.33 2.70499998,124.33 C3.21499998,124.33 3.53499998,124.56 3.53499998,125.35 L3.53499998,129 L4.45499998,129 L4.45499998,125.22 C4.45499998,124.22 3.89499998,123.61 2.92499998,123.61 Z M10.055,127.77 C10.055,128.23 10.225,128.38 10.495,128.48 L10.285,129.12 C9.75499999,129.06 9.41499999,128.85 9.25499999,128.33 C8.88499999,128.88 8.32499999,129.12 7.68499999,129.12 C6.63499999,129.12 6.00499999,128.47 6.00499999,127.53 C6.00499999,126.4 6.85499999,125.79 8.32499999,125.79 L9.13499999,125.79 L9.13499999,125.4 C9.13499999,124.64 8.76499999,124.36 8.03499999,124.36 C7.64499999,124.36 7.15499999,124.46 6.61499999,124.64 L6.38499999,123.97 C7.03499999,123.73 7.61499999,123.61 8.20499999,123.61 C9.47499999,123.61 10.055,124.26 10.055,125.36 L10.055,127.77 Z M7.89499999,128.43 C8.43499999,128.43 8.83499999,128.16 9.13499999,127.61 L9.13499999,126.4 L8.44499999,126.4 C7.47499999,126.4 6.98499999,126.76 6.98499999,127.48 C6.98499999,128.1 7.29499999,128.43 7.89499999,128.43 Z M14.455,128.13 C14.195,128.29 13.985,128.36 13.755,128.36 C13.295,128.36 13.125,128.11 13.125,127.58 L13.125,124.44 L14.275,124.44 L14.375,123.73 L13.125,123.73 L13.125,122.43 L12.205,122.54 L12.205,123.73 L11.285,123.73 L11.285,124.44 L12.205,124.44 L12.205,127.62 C12.205,128.6 12.735,129.12 13.625,129.12 C14.075,129.12 14.455,129 14.805,128.76 L14.455,128.13 Z M19.875,123.73 L18.955,123.73 L18.955,127.49 C18.635,128.02 18.205,128.4 17.635,128.4 C17.065,128.4 16.825,128.13 16.825,127.41 L16.825,123.73 L15.905,123.73 L15.905,127.51 C15.905,128.54 16.455,129.12 17.375,129.12 C18.125,129.12 18.615,128.82 19.015,128.18 L19.085,129 L19.875,129 L19.875,123.73 Z M24.265,123.61 C23.625,123.61 23.135,124.01 22.855,124.8 L22.765,123.73 L21.975,123.73 L21.975,129 L22.895,129 L22.895,125.99 C23.115,124.98 23.495,124.51 24.155,124.51 C24.345,124.51 24.455,124.53 24.615,124.57 L24.785,123.67 C24.625,123.63 24.435,123.61 24.265,123.61 Z M29.915,126.21 C29.915,126.39 29.905,126.56 29.895,126.68 L26.535,126.68 C26.625,127.9 27.195,128.37 27.955,128.37 C28.475,128.37 28.865,128.23 29.325,127.91 L29.725,128.46 C29.205,128.87 28.615,129.12 27.885,129.12 C26.415,129.12 25.555,128.09 25.555,126.42 C25.555,124.78 26.385,123.61 27.745,123.61 C29.165,123.61 29.915,124.6 29.915,126.21 Z M29.005,126 L29.005,125.94 C29.005,124.91 28.595,124.34 27.765,124.34 C27.065,124.34 26.605,124.83 26.535,126 L29.005,126 Z M34.145,121.99 C35.875,121.99 37.055,123.24 37.055,125.56 C37.055,127.84 35.875,129.12 34.145,129.12 C32.425,129.12 31.235,127.88 31.235,125.57 C31.235,123.3 32.425,121.99 34.145,121.99 Z M34.145,122.77 C32.995,122.77 32.245,123.58 32.245,125.57 C32.245,127.56 33.025,128.34 34.145,128.34 C35.305,128.34 36.045,127.56 36.045,125.56 C36.045,123.58 35.325,122.77 34.145,122.77 Z M40.545,122.24 C39.965,122.24 39.765,122.49 39.765,123 L39.765,123.73 L41.045,123.73 L40.945,124.44 L39.765,124.44 L39.765,129 L38.845,129 L38.845,124.44 L37.905,124.44 L37.905,123.73 L38.845,123.73 L38.845,123.01 C38.845,122.13 39.425,121.5 40.495,121.5 C40.995,121.5 41.335,121.59 41.755,121.77 L41.465,122.44 C41.125,122.29 40.815,122.24 40.545,122.24 Z M44.095,122.24 C43.515,122.24 43.315,122.49 43.315,123 L43.315,123.73 L44.595,123.73 L44.495,124.44 L43.315,124.44 L43.315,129 L42.395,129 L42.395,124.44 L41.455,124.44 L41.455,123.73 L42.395,123.73 L42.395,123.01 C42.395,122.13 42.975,121.5 44.045,121.5 C44.545,121.5 44.885,121.59 45.305,121.77 L45.015,122.44 C44.675,122.29 44.365,122.24 44.095,122.24 Z M46.405,121.2 C46.025,121.2 45.765,121.47 45.765,121.83 C45.765,122.18 46.025,122.45 46.405,122.45 C46.795,122.45 47.055,122.18 47.055,121.83 C47.055,121.47 46.795,121.2 46.405,121.2 Z M46.875,123.73 L45.955,123.73 L45.955,129 L46.875,129 L46.875,123.73 Z M50.895,123.61 C49.465,123.61 48.595,124.73 48.595,126.41 C48.595,128.11 49.475,129.12 50.895,129.12 C51.505,129.12 52.035,128.92 52.505,128.54 L52.085,127.94 C51.685,128.2 51.375,128.34 50.935,128.34 C50.105,128.34 49.585,127.77 49.585,126.39 C49.585,125.02 50.105,124.37 50.935,124.37 C51.375,124.37 51.705,124.5 52.065,124.76 L52.505,124.18 C52.015,123.77 51.515,123.61 50.895,123.61 Z M57.935,126.21 C57.935,126.39 57.925,126.56 57.915,126.68 L54.555,126.68 C54.645,127.9 55.215,128.37 55.975,128.37 C56.495,128.37 56.885,128.23 57.345,127.91 L57.745,128.46 C57.225,128.87 56.635,129.12 55.905,129.12 C54.435,129.12 53.575,128.09 53.575,126.42 C53.575,124.78 54.405,123.61 55.765,123.61 C57.185,123.61 57.935,124.6 57.935,126.21 Z M57.025,126 L57.025,125.94 C57.025,124.91 56.615,124.34 55.785,124.34 C55.085,124.34 54.625,124.83 54.555,126 L57.025,126 Z" fill="#FFFFFF"></path>                </g>                <text fill="#FFFFFF" font-family="Fira Sans" font-size="8.60000038" font-weight="normal">                    <tspan x="12" y="117">2019-707-645228</tspan>                </text>            </g>        </g>    </g></svg>