<?xml version="1.0" encoding="UTF-8"?>
<!-- Created with Inkscape (http://www.inkscape.org/) -->
<svg width="210mm" height="297mm" version="1.1" viewBox="0 0 210 297" xmlns="http://www.w3.org/2000/svg" xmlns:cc="http://creativecommons.org/ns#" xmlns:dc="http://purl.org/dc/elements/1.1/" xmlns:rdf="http://www.w3.org/1999/02/22-rdf-syntax-ns#">
 <metadata>
  <rdf:RDF>
   <cc:Work rdf:about="">
    <dc:format>image/svg+xml</dc:format>
    <dc:type rdf:resource="http://purl.org/dc/dcmitype/StillImage"/>
    <dc:title/>
   </cc:Work>
  </rdf:RDF>
 </metadata>
 <path d="m64.947 132.08c-29.231-1.0928-54.271-21.412-61.373-49.805-1.4848-5.9358-1.7309-8.221-1.7249-16.021 0.0047-6.1602 0.08542-7.5991 0.58652-10.451 2.4449-13.915 8.7288-26.131 18.449-35.864 10.59-10.605 24.149-17.127 39.3-18.905 3.2167-0.3774 11.037-0.37995 14.288-0.0046 16.008 1.8485 31.123 9.5557 41.481 21.151 12.072 13.514 18.018 30.358 16.972 48.081-0.95416 16.176-7.6721 31.103-19.154 42.559-13.005 12.976-30.655 19.938-48.824 19.259zm9.6573-13.438c17.567-2.6162 32.147-13.127 40.023-28.855 3.6639-7.3159 5.3527-14.698 5.3527-23.4 0-6.5326-0.79797-11.466-2.7815-17.198-6.598-19.065-23.456-32.694-43.514-35.177-2.8839-0.357-9.83-0.357-12.714 0-19.393 2.4007-36.213 15.592-42.978 33.707-3.7521 10.046-4.375 21.36-1.747 31.727 0.85825 3.3856 2.3166 7.4127 3.6547 10.092 4.3626 8.7354 11.561 16.699 19.658 21.746 5.6234 3.5056 13.203 6.2966 19.568 7.2052 1.0914 0.15582 2.282 0.32699 2.6458 0.38039 1.9129 0.28079 10.432 0.12942 12.832-0.22799z" fill="#50a0f4" stroke-width=".26458"/>
</svg>
